<?xml version="1.0" standalone="no"?>
<!DOCTYPE svg PUBLIC "-//W3C//DTD SVG 20010904//EN"
 "http://www.w3.org/TR/2001/REC-SVG-20010904/DTD/svg10.dtd">
<svg version="1.0" xmlns="http://www.w3.org/2000/svg"
 width="500.000000pt" height="500.000000pt" viewBox="0 0 500.000000 500.000000"
 preserveAspectRatio="xMidYMid meet">
<metadata>
Created by potrace 1.11, written by Peter Selinger 2001-2013
</metadata>
<g transform="translate(0.000000,500.000000) scale(0.100000,-0.100000)"
fill="#000000" stroke="none">
<path d="M365 4549 c-81 -11 -145 -65 -165 -141 -17 -62 0 -145 47 -228 32
-56 259 -475 381 -700 19 -36 47 -87 62 -115 30 -55 25 -46 270 -500 95 -176
203 -376 240 -445 37 -69 87 -161 110 -205 39 -72 128 -239 215 -400 18 -33
44 -80 57 -105 14 -25 47 -85 73 -135 149 -279 455 -825 556 -993 100 -167
202 -222 308 -168 40 21 62 53 163 231 118 207 120 211 121 269 2 60 2 60
-169 366 -103 182 -295 536 -439 805 -130 242 -538 994 -698 1285 -104 190
-203 370 -220 400 -16 30 -34 59 -38 64 -5 6 -9 15 -9 20 0 8 336 11 1092 11
1004 0 1095 1 1124 17 28 15 114 127 114 148 0 6 5 10 10 10 6 0 10 5 10 10 0
6 17 36 39 68 77 113 199 309 205 330 21 64 3 101 -51 103 -97 5 -3376 3
-3408 -2z"/>
<path d="M4210 4550 c-47 -6 -98 -29 -118 -52 -6 -7 -54 -90 -108 -183 -53
-94 -104 -183 -114 -200 -9 -16 -99 -174 -200 -350 -100 -176 -253 -442 -339
-592 -86 -150 -160 -281 -166 -291 -59 -108 -161 -282 -166 -282 -3 0 -23 33
-44 73 -55 104 -204 376 -269 491 -31 54 -56 100 -56 101 0 2 -19 34 -42 71
-23 38 -55 94 -71 124 -61 111 -108 162 -166 177 -20 6 -159 10 -322 9 -311
-1 -312 -1 -324 -58 -7 -31 0 -48 118 -268 22 -41 60 -113 85 -160 24 -47 57
-107 72 -135 30 -55 167 -314 275 -520 37 -71 87 -166 110 -210 42 -79 101
-193 265 -510 133 -258 182 -347 211 -391 47 -69 112 -100 173 -83 63 17 101
69 253 339 11 19 86 150 168 290 81 140 156 269 166 287 10 18 121 209 247
425 624 1071 932 1616 948 1678 24 91 1 169 -60 206 -28 17 -54 19 -256 19
-124 0 -245 -2 -270 -5z"/>
</g>
</svg>
